<?xml version="1.0" encoding="utf-8"?>
<!-- Generator: Adobe Illustrator 24.3.0, SVG Export Plug-In . SVG Version: 6.00 Build 0)  -->
<svg version="1.1" id="Camada_1" xmlns="http://www.w3.org/2000/svg" xmlns:xlink="http://www.w3.org/1999/xlink" x="0px" y="0px"
	 viewBox="0 0 878 351" style="enable-background:new 0 0 878 351;" xml:space="preserve">
<style type="text/css">
	.st0{fill:#010002;}
</style>
<g id="layer101">
	<path class="st0" d="M435.18,349.33c-19.28-3.24-35.45-18.31-39.7-37c-1.51-6.58-1.51-19.93,0-26.23
		c1.89-8.01,6.33-16.02,11.72-21.36c3.4-3.34,36.2-24.8,106.15-69.24l101.23-64.38l0.47-14.78c0.19-8.11,0.95-16.4,1.51-18.31
		c1.8-5.82,6.71-11.35,15.69-17.74c4.73-3.24,10.78-7.53,13.52-9.54c11.82-8.39,11.63-21.65-0.28-27.75
		c-6.43-3.34-18.72-3.53-24.67-0.38c-7.75,4.2-10.78,10.68-10.78,23.46c0,3.72-0.57,6.77-1.42,8.01c-2.17,3.15-9.17,5.05-18.71,5.05
		c-9.36,0-14.75-1.24-17.77-4.1c-1.8-1.72-1.89-2.48-1.32-10.59c1.42-18.98,4.82-29.28,13.23-40.15
		c8.32-10.87,19.75-18.5,33.08-21.94c7.09-1.81,22.5-1.81,31.19,0c10.87,2.29,21.46,8.2,29.77,16.59
		c11.91,12.02,17.2,24.13,17.3,39.1c0,18.69-8.32,32.43-27.88,45.78c-11.72,8.01-12.48,9.06-12.85,19.17l-0.28,8.11l28.17,17.74
		c144.05,90.51,174.77,110.25,180.34,115.78c17.11,17.07,18.9,46.35,4.06,65.81c-4.16,5.44-11.53,11.44-17.49,14.31
		c-11.63,5.53,0.47,5.25-214.37,5.05C526.49,349.8,436.51,349.52,435.18,349.33z M831.51,305.55c3.4-3.43,4.16-7.63,1.89-10.78
		c-1.04-1.34-45.94-30.33-99.91-64.28l-97.92-61.8l-96.69,61.04c-53.12,33.57-97.54,61.99-98.77,63.33
		c-3.12,3.34-2.84,8.68,0.66,12.21l2.74,2.77h192.82h192.73L831.51,305.55z"/>
</g>
<g>
	<path d="M219.65,262.19c-4.21,1.8-8.29,4.19-12.25,7.15c-3.95,2.96-7.95,6.21-11.99,9.73c-4.04,3.52-8.23,7.24-12.57,11.15
		c-4.34,3.91-9.02,7.78-14.05,11.6c-5.03,3.83-10.51,7.48-16.44,10.96s-12.48,6.53-19.66,9.15c-7.18,2.62-15.08,4.71-23.72,6.25
		s-18.2,2.32-28.68,2.32c-11.6,0-22.06-2.34-31.39-7.03c-9.33-4.68-17.3-11-23.91-18.95c-6.62-7.95-11.71-17.19-15.28-27.71
		c-3.57-10.53-5.35-21.59-5.35-33.19c0-7.91,0.86-16.39,2.58-25.46c1.72-9.07,4.19-18.3,7.41-27.71s7.15-18.8,11.79-28.17
		c4.64-9.37,9.9-18.35,15.79-26.94c5.89-8.59,12.35-16.56,19.4-23.91c7.05-7.35,14.57-13.75,22.56-19.21
		c7.99-5.46,16.41-9.73,25.27-12.83c8.85-3.09,18.05-4.64,27.59-4.64c6.19,0,12.46,1.1,18.82,3.29c6.36,2.19,12.07,5.56,17.14,10.12
		c5.07,4.56,9.22,10.31,12.44,17.27s4.83,15.17,4.83,24.62c0,6.36-1.01,12.78-3.03,19.27c-2.02,6.49-4.79,12.72-8.31,18.69
		c-3.52,5.97-7.67,11.58-12.44,16.82c-4.77,5.24-9.91,9.78-15.4,13.6c-5.5,3.82-11.21,6.85-17.14,9.09
		c-5.93,2.24-11.86,3.35-17.79,3.35c-7.82,0-13.66-1.05-17.53-3.16c-3.87-2.11-5.8-5.13-5.8-9.09c0-0.69-0.02-1.5-0.06-2.45
		c-0.04-0.95-0.06-1.93-0.06-2.96c0-1.55,0.08-3.16,0.26-4.83c0.17-1.68,0.52-3.2,1.03-4.58c0.52-1.37,1.27-2.49,2.26-3.35
		c0.99-0.86,2.34-1.29,4.06-1.29c1.03,0,1.93,0.15,2.71,0.45c0.77,0.3,1.63,0.63,2.58,0.97c0.94,0.34,2.08,0.67,3.42,0.97
		c1.33,0.3,3.03,0.45,5.09,0.45c5.5,0,11.06-1.2,16.69-3.61c5.63-2.4,10.7-5.8,15.21-10.18s8.21-9.6,11.09-15.66
		c2.88-6.06,4.32-12.74,4.32-20.04c0-3.87-0.52-7.54-1.55-11.02s-2.71-6.53-5.03-9.15c-2.32-2.62-5.31-4.73-8.96-6.32
		c-3.65-1.59-8.1-2.38-13.34-2.38c-6.19,0-12.23,1.35-18.11,4.06c-5.89,2.71-11.54,6.38-16.95,11.02s-10.55,10.14-15.4,16.5
		c-4.86,6.36-9.35,13.17-13.47,20.43c-4.13,7.26-7.84,14.82-11.15,22.69c-3.31,7.86-6.12,15.71-8.44,23.53
		c-2.32,7.82-4.1,15.4-5.35,22.75c-1.25,7.35-1.87,14.12-1.87,20.3c0,8.85,1.1,16.56,3.29,23.14s5.31,12.05,9.35,16.44
		c4.04,4.38,8.98,7.65,14.82,9.8c5.84,2.15,12.42,3.22,19.72,3.22c9.11,0,17.6-1.14,25.46-3.42c7.86-2.28,15.36-5.26,22.49-8.96
		c7.13-3.69,14.03-7.86,20.69-12.5c6.66-4.64,13.32-9.3,19.98-13.99c6.66-4.68,13.45-9.15,20.37-13.41
		c6.92-4.25,14.24-7.84,21.98-10.76V262.19z"/>
	<path d="M222.87,305.76c-4.64,0-8.96-2.04-12.96-6.12c-4-4.08-7.48-9.56-10.44-16.44c-2.96-6.87-5.29-14.84-6.96-23.91
		c-1.68-9.07-2.51-18.58-2.51-28.55c0-7.65,0.56-15.96,1.68-24.94c1.12-8.98,2.75-18.24,4.9-27.78c2.15-9.54,4.71-19.12,7.67-28.75
		c2.96-9.62,6.32-18.86,10.05-27.71c3.74-8.85,7.8-17.12,12.18-24.81c4.38-7.69,8.98-14.39,13.79-20.11
		c4.81-5.71,9.84-10.2,15.08-13.47c5.24-3.27,10.57-4.9,15.98-4.9c3.69,0,6.75,0.84,9.15,2.51c2.4,1.68,4.3,3.89,5.67,6.64
		c1.37,2.75,2.34,5.87,2.9,9.35c0.56,3.48,0.84,7.03,0.84,10.63c0,8.08-0.92,16.31-2.77,24.69c-1.85,8.38-4.34,16.8-7.48,25.27
		c-3.14,8.46-6.77,16.95-10.89,25.46s-8.42,16.95-12.89,25.33c-4.47,8.38-8.96,16.63-13.47,24.75s-8.75,16.05-12.7,23.78
		c-0.43,0.86-0.88,1.98-1.35,3.35c-0.47,1.38-0.92,2.86-1.35,4.45c-0.43,1.59-0.86,3.29-1.29,5.09c-0.43,1.8-0.77,3.57-1.03,5.29
		v1.8c0,2.24,0.24,4.41,0.71,6.51c0.47,2.11,1.05,4,1.74,5.67c0.69,1.68,1.42,3.01,2.19,4c0.77,0.99,1.5,1.48,2.19,1.48
		c1.63,0,3.5-0.34,5.61-1.03c2.1-0.69,4.34-1.61,6.7-2.77c2.36-1.16,4.79-2.49,7.28-4c2.49-1.5,4.9-3.03,7.22-4.58
		c5.41-3.61,11.09-7.78,17.02-12.5l10.57,27.07c-7.65,5.5-15.21,10.4-22.69,14.7c-3.27,1.8-6.64,3.59-10.12,5.35
		c-3.48,1.76-6.98,3.33-10.51,4.71c-3.52,1.38-6.96,2.47-10.31,3.29C228.93,305.35,225.79,305.76,222.87,305.76z M223,202.64
		c3.87-6.88,7.97-14.61,12.31-23.2c4.34-8.59,8.44-17.45,12.31-26.55c3.87-9.11,7.22-18.2,10.05-27.26
		c2.84-9.07,4.64-17.51,5.41-25.33c0-2.49-0.06-4.62-0.19-6.38c-0.13-1.76-0.54-2.64-1.22-2.64c-2.49,0-5.18,1.61-8.06,4.83
		c-2.88,3.22-5.76,7.59-8.64,13.08c-2.88,5.5-5.63,11.9-8.25,19.21c-2.62,7.31-4.96,15.08-7.03,23.33s-3.7,16.74-4.9,25.46
		C223.6,185.9,223,194.39,223,202.64z"/>
	<path d="M347.39,209.21c2.49,4.99,4.36,10.25,5.61,15.79c1.24,5.54,1.87,10.85,1.87,15.92c0,5.07-0.56,10.18-1.68,15.34
		c-1.12,5.16-2.73,10.14-4.83,14.95c-2.11,4.81-4.69,9.33-7.73,13.54c-3.05,4.21-6.53,7.86-10.44,10.96
		c-3.91,3.09-8.19,5.54-12.83,7.35s-9.58,2.71-14.82,2.71c-7.56,0-14.03-1.65-19.4-4.96c-5.37-3.31-9.78-7.63-13.21-12.96
		c-3.44-5.33-5.95-11.34-7.54-18.05c-1.59-6.7-2.38-13.49-2.38-20.37c0-9.45,1.42-18.28,4.25-26.49c2.84-8.21,6.9-15.34,12.18-21.4
		s11.75-10.83,19.4-14.31c7.65-3.48,16.24-5.22,25.78-5.22c8.16,0,15.81,1.27,22.95,3.8c7.13,2.54,13.81,5.93,20.04,10.18
		c6.23,4.25,12.03,9.13,17.4,14.63c5.37,5.5,10.38,11.17,15.02,17.02l-2.45,18.18c-2.32-3.09-5.46-6.45-9.41-10.05
		c-3.95-3.61-8.14-7.13-12.57-10.57c-4.43-3.44-8.79-6.68-13.08-9.73c-4.3-3.05-7.99-5.61-11.09-7.67L347.39,209.21z M307.56,281.01
		c2.92,0,5.76-1.48,8.51-4.45c2.75-2.96,5.16-6.7,7.22-11.21s3.72-9.5,4.96-14.95c1.24-5.46,1.87-10.68,1.87-15.66
		c0-3.95-0.3-7.63-0.9-11.02c-0.6-3.39-1.5-6.34-2.71-8.83c-1.2-2.49-2.75-4.47-4.64-5.93c-1.89-1.46-4.17-2.19-6.83-2.19
		c-3.52,0-6.88,1.5-10.05,4.51c-3.18,3.01-5.97,6.85-8.38,11.54c-2.41,4.68-4.3,9.86-5.67,15.53c-1.38,5.67-2.06,11.13-2.06,16.37
		c0,3.61,0.34,7,1.03,10.18c0.69,3.18,1.76,5.95,3.22,8.31c1.46,2.36,3.39,4.25,5.8,5.67C301.33,280.3,304.21,281.01,307.56,281.01z
		"/>
</g>
</svg>
