<!DOCTYPE svg PUBLIC "-//W3C//DTD SVG 20010904//EN" "http://www.w3.org/TR/2001/REC-SVG-20010904/DTD/svg10.dtd">
<svg version="1.0" xmlns="http://www.w3.org/2000/svg" width="512px" height="512px" viewBox="0 0 5120 5120" preserveAspectRatio="xMidYMid meet">
<g id="layer101" fill="#010002" stroke="none">
 <path d="M440 4383 c-204 -34 -375 -192 -420 -388 -16 -69 -16 -209 0 -275 20 -84 67 -168 124 -224 36 -35 383 -260 1123 -726 l1071 -675 5 -155 c2 -85 10 -172 16 -192 19 -61 71 -119 166 -186 50 -34 114 -79 143 -100 125 -88 123 -227 -3 -291 -68 -35 -198 -37 -261 -4 -82 44 -114 112 -114 246 0 39 -6 71 -15 84 -23 33 -97 53 -198 53 -99 0 -156 -13 -188 -43 -19 -18 -20 -26 -14 -111 15 -199 51 -307 140 -421 88 -114 209 -194 350 -230 75 -19 238 -19 330 0 115 24 227 86 315 174 126 126 182 253 183 410 0 196 -88 340 -295 480 -124 84 -132 95 -136 201 l-3 85 298 186 c1524 949 1849 1156 1908 1214 181 179 200 486 43 690 -44 57 -122 120 -185 150 -123 58 5 55 -2268 53 -1149 0 -2101 -3 -2115 -5z m4193 -459 c36 -36 44 -80 20 -113 -11 -14 -486 -318 -1057 -674 l-1036 -648 -1023 640 c-562 352 -1032 650 -1045 664 -33 35 -30 91 7 128 l29 29 2040 0 2039 0 26 -26z"/>
 </g>

</svg>